HIERARCHY
ROOT Hips
{
  OFFSET 5.80788e-005 67.184 3.4734
  CHANNELS 6 Xposition Yposition Zposition Zrotation Xrotation Yrotation
  JOINT Chest
  {
    OFFSET 0 8.7983 -4.7612
    CHANNELS 3 Zrotation Xrotation Yrotation
    JOINT Chest2
    {
      OFFSET 0 8.0291 0.4195
      CHANNELS 3 Zrotation Xrotation Yrotation
      JOINT Chest3
      {
        OFFSET 0 9.9351 -2.2114
        CHANNELS 3 Zrotation Xrotation Yrotation
        JOINT Neck
        {
          OFFSET 0 22.3885 -0.4656
          CHANNELS 3 Zrotation Xrotation Yrotation
          JOINT Head
          {
            OFFSET -0.0001 12.643 3.4389
            CHANNELS 3 Zrotation Xrotation Yrotation
            End Site
            {
              OFFSET 0.0001 17.6655 0.5274
            }
          }
        }
        JOINT LeftCollar
        {
          OFFSET 2.2603 21.606 7.4023
          CHANNELS 3 Zrotation Xrotation Yrotation
          JOINT LeftShoulder
          {
            OFFSET 13.5163 -1.1332 -5.0146
            CHANNELS 3 Zrotation Xrotation Yrotation
            JOINT LeftElbow
            {
              OFFSET -0.0995 -28.05 -0.2431
              CHANNELS 3 Zrotation Xrotation Yrotation
              JOINT LeftWrist
              {
                OFFSET 0.0679 -23.3996 -0.1402
                CHANNELS 3 Zrotation Xrotation Yrotation
                JOINT LeftFinger1
                {
                  OFFSET 0.7932 -9.069 2.5189
                  CHANNELS 3 Zrotation Xrotation Yrotation
                  JOINT LeftFinger11
                  {
                    OFFSET -0.8272 -3.3923 0.5977
                    CHANNELS 3 Zrotation Xrotation Yrotation
                    JOINT LeftFinger12
                    {
                      OFFSET -0.5649 -2.3158 0.4082
                      CHANNELS 3 Zrotation Xrotation Yrotation
                      End Site
                      {
                        OFFSET -0.4919 -1.6479 0.2673
                      }
                    }
                  }
                }
                JOINT LeftFinger2
                {
                  OFFSET 0.9159 -9.2044 0.2193
                  CHANNELS 3 Zrotation Xrotation Yrotation
                  JOINT LeftFinger21
                  {
                    OFFSET 0.0117 -4.1944 -0.0248
                    CHANNELS 3 Zrotation Xrotation Yrotation
                    JOINT LeftFinger22
                    {
                      OFFSET 0.0071 -2.3249 -0.0142
                      CHANNELS 3 Zrotation Xrotation Yrotation
                      End Site
                      {
                        OFFSET -0.1475 -2.0882 0.0028
                      }
                    }
                  }
                }
                JOINT LeftFinger3
                {
                  OFFSET 0.6113 -8.7231 -2.0637
                  CHANNELS 3 Zrotation Xrotation Yrotation
                  JOINT LeftFinger31
                  {
                    OFFSET -0.1927 -3.8059 -0.2383
                    CHANNELS 3 Zrotation Xrotation Yrotation
                    JOINT LeftFinger32
                    {
                      OFFSET -0.1091 -2.1688 -0.1362
                      CHANNELS 3 Zrotation Xrotation Yrotation
                      End Site
                      {
                        OFFSET -0.2358 -1.9176 -0.0906
                      }
                    }
                  }
                }
                JOINT LeftFinger4
                {
                  OFFSET -0.6151 -8.0947 -3.5641
                  CHANNELS 3 Zrotation Xrotation Yrotation
                  JOINT LeftFinger41
                  {
                    OFFSET -0.4882 -2.341 -0.6462
                    CHANNELS 3 Zrotation Xrotation Yrotation
                    JOINT LeftFinger42
                    {
                      OFFSET -0.3575 -1.7167 -0.4742
                      CHANNELS 3 Zrotation Xrotation Yrotation
                      End Site
                      {
                        OFFSET -0.4187 -1.5237 -0.3496
                      }
                    }
                  }
                }
                JOINT LeftFinger0
                {
                  OFFSET -1.42 -1.8761 1.4223
                  CHANNELS 3 Zrotation Xrotation Yrotation
                  JOINT LeftFinger01
                  {
                    OFFSET -1.1471 -3.4929 2.6334
                    CHANNELS 3 Zrotation Xrotation Yrotation
                    JOINT LeftFinger02
                    {
                      OFFSET -0.823 -2.3 1.6571
                      CHANNELS 3 Zrotation Xrotation Yrotation
                      End Site
                      {
                        OFFSET -0.5822 -1.6914 1.1582
                      }
                    }
                  }
                }
              }
            }
          }
        }
        JOINT RightCollar
        {
          OFFSET -2.2603 21.606 7.4023
          CHANNELS 3 Zrotation Xrotation Yrotation
          JOINT RightShoulder
          {
            OFFSET -13.5187 -1.1334 -5.0155
            CHANNELS 3 Zrotation Xrotation Yrotation
            JOINT RightElbow
            {
              OFFSET 0.0994 -28.0499 -0.2431
              CHANNELS 3 Zrotation Xrotation Yrotation
              JOINT RightWrist
              {
                OFFSET -0.0679 -23.3996 -0.1402
                CHANNELS 3 Zrotation Xrotation Yrotation
                JOINT RightFinger1
                {
                  OFFSET -0.7932 -9.0691 2.5189
                  CHANNELS 3 Zrotation Xrotation Yrotation
                  JOINT RightFinger11
                  {
                    OFFSET 0.8272 -3.3923 0.5977
                    CHANNELS 3 Zrotation Xrotation Yrotation
                    JOINT RightFinger12
                    {
                      OFFSET 0.565 -2.3158 0.4082
                      CHANNELS 3 Zrotation Xrotation Yrotation
                      End Site
                      {
                        OFFSET 0.4919 -1.6479 0.2673
                      }
                    }
                  }
                }
                JOINT RightFinger2
                {
                  OFFSET -0.916 -9.2044 0.2193
                  CHANNELS 3 Zrotation Xrotation Yrotation
                  JOINT RightFinger21
                  {
                    OFFSET -0.0117 -4.1944 -0.0248
                    CHANNELS 3 Zrotation Xrotation Yrotation
                    JOINT RightFinger22
                    {
                      OFFSET -0.0071 -2.3249 -0.0142
                      CHANNELS 3 Zrotation Xrotation Yrotation
                      End Site
                      {
                        OFFSET 0.1475 -2.0882 0.0028
                      }
                    }
                  }
                }
                JOINT RightFinger3
                {
                  OFFSET -0.6113 -8.7231 -2.0637
                  CHANNELS 3 Zrotation Xrotation Yrotation
                  JOINT RightFinger31
                  {
                    OFFSET 0.1927 -3.8059 -0.2383
                    CHANNELS 3 Zrotation Xrotation Yrotation
                    JOINT RightFinger32
                    {
                      OFFSET 0.1091 -2.1688 -0.1362
                      CHANNELS 3 Zrotation Xrotation Yrotation
                      End Site
                      {
                        OFFSET 0.2358 -1.9176 -0.0906
                      }
                    }
                  }
                }
                JOINT RightFinger4
                {
                  OFFSET 0.6151 -8.0947 -3.564
                  CHANNELS 3 Zrotation Xrotation Yrotation
                  JOINT RightFinger41
                  {
                    OFFSET 0.4882 -2.341 -0.6462
                    CHANNELS 3 Zrotation Xrotation Yrotation
                    JOINT RightFinger42
                    {
                      OFFSET 0.3574 -1.7166 -0.4742
                      CHANNELS 3 Zrotation Xrotation Yrotation
                      End Site
                      {
                        OFFSET 0.4187 -1.5237 -0.3496
                      }
                    }
                  }
                }
                JOINT RightFinger0
                {
                  OFFSET 1.4199 -1.8761 1.4221
                  CHANNELS 3 Zrotation Xrotation Yrotation
                  JOINT RightFinger01
                  {
                    OFFSET 1.1472 -3.4929 2.6336
                    CHANNELS 3 Zrotation Xrotation Yrotation
                    JOINT RightFinger02
                    {
                      OFFSET 0.8229 -2.3 1.6571
                      CHANNELS 3 Zrotation Xrotation Yrotation
                      End Site
                      {
                        OFFSET 0.5822 -1.6914 1.1582
                      }
                    }
                  }
                }
              }
            }
          }
        }
      }
    }
  }
  JOINT RightHip
  {
    OFFSET -9.412 3.9771 -0.7758
    CHANNELS 3 Zrotation Xrotation Yrotation
    JOINT RightKnee
    {
      OFFSET -0.7531 -40.938 0
      CHANNELS 3 Zrotation Xrotation Yrotation
      JOINT RightAnkle
      {
        OFFSET 0 -40.1986 0
        CHANNELS 3 Zrotation Xrotation Yrotation
        JOINT RightToe
        {
          OFFSET 0 -4.4182 9.239
          CHANNELS 3 Zrotation Xrotation Yrotation
          End Site
          {
            OFFSET 0 0 6.1981
          }
        }
      }
    }
  }
  JOINT LeftHip
  {
    OFFSET 9.4119 3.9773 -0.7758
    CHANNELS 3 Zrotation Xrotation Yrotation
    JOINT LeftKnee
    {
      OFFSET 0.7532 -40.9383 0
      CHANNELS 3 Zrotation Xrotation Yrotation
      JOINT LeftAnkle
      {
        OFFSET 0 -40.1986 0
        CHANNELS 3 Zrotation Xrotation Yrotation
        JOINT LeftToe
        {
          OFFSET 0 -4.4182 9.239
          CHANNELS 3 Zrotation Xrotation Yrotation
          End Site
          {
            OFFSET 0 0 6.1981
          }
        }
      }
    }
  }
}
MOTION
Frames:	4
Frame Time:	0.0333333
5.80788e-005 67.184 3.4734 0 0 -0 0 0 -0 0 0 -0 0 0 -0 0 0 -0 0 0 -0 0 0 -12.5014 88.1196 14.2451 10.6914 -0.00160068 -0.00239207 0.000740045 -8.4365e-005 7.00714e-005 -9.52055e-007 9.93923e-017 -1.98785e-016 -1.59028e-015 9.93923e-017 -5.96354e-016 -1.59028e-015 -9.93923e-017 -5.96354e-016 -1.59028e-015 9.93923e-017 -1.98785e-016 -1.59028e-015 -0.0128176 0.00232552 8.52707e-005 9.93923e-017 5.96354e-016 -0 9.93923e-017 -1.98785e-016 -1.59028e-015 -0.0160551 0.00299681 0.000857156 -2.48481e-016 0 3.18055e-015 9.93923e-017 -1.98785e-016 -1.59028e-015 -0.0125865 0.0031206 0.00282719 0 1.98785e-016 -0 9.93923e-017 -1.98785e-016 -1.59028e-015 9.93923e-017 -5.96354e-016 -1.59028e-015 -9.93923e-017 -5.96354e-016 -1.59028e-015 -0.865644 0.16582 7.03859 -88.0329 10.2057 -10.5567 0.0015593 -0.00248883 -0.000788628 7.87605e-005 4.10553e-005 1.24965e-005 -3.97569e-016 -7.95139e-016 3.18055e-015 -1.98785e-016 -3.97569e-016 3.18055e-015 -1.98785e-016 0 3.18055e-015 -3.97569e-016 -7.95139e-016 3.18055e-015 0.0129473 0.00231697 -8.70038e-005 9.93923e-017 -7.95139e-016 1.59028e-015 -3.97569e-016 -7.95139e-016 3.18055e-015 0.0163314 0.00303369 -0.000872333 3.97569e-016 7.95139e-016 -3.18055e-015 -3.97569e-016 -7.95139e-016 3.18055e-015 0.0145763 0.00367772 -0.00326275 9.93923e-017 -3.97569e-016 -0 -3.97569e-016 -7.95139e-016 3.18055e-015 -1.98785e-016 -3.97569e-016 3.18055e-015 -1.98785e-016 0 3.18055e-015 3.42485 1.36937 -0.0640303 0.000136572 0.69354 0.00145564 -3.42573 -2.06297 -0.0607933 -3.19502e-024 0 -1.48106e-024 -3.42498 1.36123 0.0639712 -6.769e-005 0.712612 -0.0012277 3.42582 -2.07388 0.0612819 2.55305e-023 0 -2.31416e-026 
-0.00013106 67.8274 47.277 180 70.0004 -180 -0.224425 12.9016 -0.275493 -0.399088 25.8042 -0.518113 -0.399087 25.8041 -0.518113 1.25949e-005 -0.401057 1.49762e-005 2.9545e-008 -0.354961 -1.91937e-007 42.8401 -7.13379 -16.6554 133.482 -3.66021 60.9885 12.0417 -5.45725 2.5673 -3.65898 0.604427 0.46337 7.95139e-015 -2.34566e-014 -9.54166e-015 6.75868e-015 -2.32081e-014 -7.95139e-015 6.36111e-015 -2.45996e-014 -9.54166e-015 7.95139e-015 -2.34566e-014 -9.54166e-015 -0.0128481 0.00233103 8.58279e-005 1.19271e-015 -7.95139e-016 -4.77083e-015 7.95139e-015 -2.34566e-014 -9.54166e-015 -0.0159707 0.00298849 0.000847409 1.59028e-015 1.39149e-015 -1.59028e-015 7.95139e-015 -2.34566e-014 -9.54166e-015 -0.0125529 0.00311293 0.0028162 7.95139e-016 -2.98177e-016 1.59028e-015 7.95139e-015 -2.34566e-014 -9.54166e-015 6.75868e-015 -2.32081e-014 -7.95139e-015 6.36111e-015 -2.45996e-014 -9.54166e-015 -44.0617 -6.96452 11.0933 -132.335 -5.94662 -64.8207 -12.0169 -5.35325 -2.89446 3.69852 0.93823 -0.608141 -7.95139e-016 -2.08724e-015 -0 -1.04987e-005 -9.9893e-006 -6.66863e-007 2.12227e-006 -3.4707e-006 -1.67271e-007 -7.95139e-016 -2.08724e-015 -0 0.0130371 0.0023348 -8.99422e-005 1.02646e-005 5.17004e-006 3.20903e-008 -7.95139e-016 -2.08724e-015 -0 0.0163236 0.00303869 -0.000876896 6.55629e-006 -3.00305e-006 -1.17006e-006 -7.95139e-016 -2.08724e-015 -0 0.0145665 0.00367922 -0.0032524 1.41717e-006 -8.93982e-006 -2.07218e-006 -7.95139e-016 -2.08724e-015 -0 -1.04987e-005 -9.9893e-006 -6.66863e-007 2.12227e-006 -3.4707e-006 -1.67271e-007 -171.622 -70.1895 -168.641 4.08982 5.84879 -1.36404 -4.55657 35.0165 -5.51518 -2.92084e-007 -2.57259e-006 -9.43554e-007 171.884 -70.139 168.876 -3.98224 5.9706 1.29417 4.42844 34.9808 5.58785 -1.08996e-006 -5.06754e-006 5.85899e-007 
-0.000131068 67.8274 47.1567 -180 70.0004 180 -0.22542 12.813 -0.2734 -0.401959 25.6269 -0.513631 -0.401958 25.6269 -0.51363 1.2034e-005 -0.792895 1.42377e-005 -3.49156e-008 -0.703189 3.1478e-007 42.6676 -6.95562 -16.872 133.482 -3.66019 60.9885 12.0417 -5.45725 2.5673 -3.83584 0.639447 0.429055 2.86819e-006 -4.4015e-006 -1.00266e-005 6.72471e-007 -4.393e-006 1.05863e-005 -3.53966e-006 7.45196e-006 -2.14125e-005 2.86819e-006 -4.4015e-006 -1.00266e-005 -0.0128874 0.00232703 9.898e-005 -1.88052e-006 1.70486e-005 -1.1366e-005 2.86819e-006 -4.4015e-006 -1.00266e-005 -0.0160595 0.00301055 0.000853264 3.97569e-016 -2.83268e-015 1.59028e-015 2.86819e-006 -4.4015e-006 -1.00266e-005 -0.0126476 0.00313897 0.00284789 7.06779e-006 8.1855e-006 -1.55853e-006 2.86819e-006 -4.4015e-006 -1.00266e-005 6.72471e-007 -4.393e-006 1.05863e-005 -3.53966e-006 7.45196e-006 -2.14125e-005 -43.8717 -6.79265 11.3111 -132.335 -5.94664 -64.8207 -12.0169 -5.35325 -2.89445 3.87542 0.953799 -0.557771 3.03456e-032 1.09332e-015 -1.59028e-015 4.96564e-032 1.78906e-015 -1.59028e-015 -3.97569e-016 1.49089e-015 -1.59028e-015 3.03456e-032 1.09332e-015 -1.59028e-015 0.0130141 0.00233388 -8.7463e-005 7.95139e-016 1.49089e-015 3.18055e-015 3.03456e-032 1.09332e-015 -1.59028e-015 0.0163746 0.00303597 -0.000875712 1.19271e-015 -2.18663e-015 -3.18055e-015 3.03456e-032 1.09332e-015 -1.59028e-015 0.0146783 0.00371574 -0.00328643 -7.95139e-016 -2.28602e-015 -3.18055e-015 3.03456e-032 1.09332e-015 -1.59028e-015 4.96564e-032 1.78906e-015 -1.59028e-015 -3.97569e-016 1.49089e-015 -1.59028e-015 -171.622 -70.1894 -168.642 4.08983 5.84886 -1.36404 -4.55657 35.0166 -5.51518 1.39149e-015 3.15066e-008 -5.96354e-016 171.884 -70.1388 168.876 -3.98226 5.97093 1.2942 4.42844 34.9807 5.58785 -1.26849e-006 -2.52781e-006 1.47025e-007 
-0.000131073 67.8274 47.0363 -180 70.0004 180 -0.226363 12.7243 -0.270983 -0.404792 25.4495 -0.5085 -0.404791 25.4495 -0.508499 1.23287e-005 -1.1852 1.42099e-005 6.94601e-008 -1.0517 6.38052e-007 42.4959 -6.77684 -17.0879 133.482 -3.66022 60.9885 12.0417 -5.45724 2.5673 -4.01267 0.674618 0.394841 -1.19271e-015 7.95139e-016 1.59028e-015 -0 -8.94531e-016 -0 0 6.95746e-016 -0 -1.19271e-015 7.95139e-016 1.59028e-015 -0.0128224 0.00231141 9.37052e-005 3.97569e-016 4.22417e-015 1.59028e-015 -1.19271e-015 7.95139e-016 1.59028e-015 -0.0160313 0.00298384 0.000844761 2.20695e-032 3.97569e-016 -3.18055e-015 -1.19271e-015 7.95139e-016 1.59028e-015 -0.012442 0.00308632 0.00280513 -4.96564e-032 -1.78906e-015 -1.59028e-015 -1.19271e-015 7.95139e-016 1.59028e-015 -0 -8.94531e-016 -0 0 6.95746e-016 -0 -43.6823 -6.62009 11.5283 -132.335 -5.94663 -64.8207 -12.0169 -5.35324 -2.89446 4.05232 0.969527 -0.507435 -4.77083e-015 -2.59414e-014 -1.59028e-015 -4.77083e-015 -2.45499e-014 -1.59028e-015 -5.1684e-015 -2.44505e-014 -1.59028e-015 -4.77083e-015 -2.59414e-014 -1.59028e-015 0.0128681 0.00230842 -8.28398e-005 -3.97569e-016 -8.94531e-016 3.18055e-015 -4.77083e-015 -2.59414e-014 -1.59028e-015 0.016296 0.0030355 -0.00085294 1.21382e-031 4.37326e-015 -1.59028e-015 -4.77083e-015 -2.59414e-014 -1.59028e-015 0.0146229 0.0036891 -0.0032612 -3.97569e-016 1.78906e-015 -3.18055e-015 -4.77083e-015 -2.59414e-014 -1.59028e-015 -4.77083e-015 -2.45499e-014 -1.59028e-015 -5.1684e-015 -2.44505e-014 -1.59028e-015 -171.622 -70.1894 -168.642 4.08983 5.84886 -1.36404 -4.55657 35.0166 -5.51518 -4.60101e-007 -5.81181e-009 -1.1804e-007 171.884 -70.1388 168.876 -3.98226 5.97093 1.2942 4.42844 34.9807 5.58785 -1.26849e-006 -2.52781e-006 1.47025e-007 
